<svg width="24" height="24" viewBox="0 0 24 24" fill="none" xmlns="http://www.w3.org/2000/svg">
<path d="M11.1954 0.836177C11.7253 0.71981 12.2748 0.71981 12.8047 0.836177C13.4322 0.974056 14.003 1.32757 14.8555 1.83911L20.0557 4.95922C20.8628 5.44347 21.4124 5.76342 21.8165 6.2229C22.1576 6.61103 22.4151 7.06558 22.5723 7.55786C22.7584 8.14074 22.7501 8.77666 22.7501 9.71801V14.2825C22.7501 15.2238 22.7585 15.8597 22.5723 16.4426C22.4151 16.9348 22.1576 17.3895 21.8165 17.7776C21.4124 18.237 20.8627 18.557 20.0557 19.0413L14.8555 22.1614C14.0031 22.6729 13.4322 23.0264 12.8047 23.1643C12.2749 23.2806 11.7252 23.2807 11.1954 23.1643C10.5679 23.0264 9.9971 22.6729 9.14459 22.1614L3.94439 19.0413C3.13733 18.557 2.58768 18.237 2.18365 17.7776C1.84247 17.3895 1.58504 16.9349 1.42779 16.4426C1.24165 15.8597 1.25006 15.2238 1.25006 14.2825V9.71801C1.25006 8.77668 1.24171 8.14073 1.42779 7.55786C1.58501 7.06561 1.8425 6.61102 2.18365 6.2229C2.58766 5.76343 3.13735 5.44345 3.94439 4.95922L9.14459 1.83911C9.99709 1.3276 10.5679 0.974073 11.1954 0.836177ZM2.8565 8.01391C2.75837 8.3214 2.75006 8.67772 2.75006 9.71801V14.2825C2.75006 15.3228 2.7583 15.679 2.8565 15.9866C2.95089 16.2819 3.10589 16.5545 3.3106 16.7873C3.52375 17.0297 3.82418 17.2201 4.71588 17.7551L9.91607 20.8752C10.6143 21.2942 10.9755 21.5039 11.2501 21.6145V12.9202L2.92486 7.83227C2.89996 7.89182 2.87622 7.95222 2.8565 8.01391ZM12.7501 12.9202V21.6145C13.0247 21.5039 13.3858 21.2942 14.084 20.8752L19.2842 17.7551C20.1759 17.2201 20.4764 17.0296 20.6895 16.7873C20.8942 16.5545 21.0492 16.2819 21.1436 15.9866C21.2418 15.679 21.2501 15.3228 21.2501 14.2825V9.71801C21.2501 8.67768 21.2418 8.32141 21.1436 8.01391C21.1239 7.95208 21.0992 7.89194 21.0743 7.83227L12.7501 12.9202ZM8.73248 9.62426L12.0001 11.6213L20.0381 6.70922C19.8471 6.5876 19.6046 6.43755 19.2842 6.24536L16.751 4.72485L8.73248 9.62426ZM12.4825 2.30102C12.1647 2.23126 11.8355 2.23126 11.5176 2.30102C11.1868 2.37371 10.8591 2.55945 9.91607 3.12524L4.71588 6.24536C4.39516 6.43779 4.15216 6.58752 3.961 6.70922L7.29498 8.74633L15.2999 3.85473L14.084 3.12524C13.141 2.55939 12.8134 2.37369 12.4825 2.30102Z" fill="white"/>
</svg>
