<svg width="22" height="19" viewBox="0 0 22 19" fill="none" xmlns="http://www.w3.org/2000/svg">
<path d="M21.4987 8.29533C21.4972 6.9034 20.9436 5.5689 19.9594 4.58466C18.9752 3.60042 17.6407 3.04682 16.2487 3.04533C16.0828 3.04533 15.9169 3.0547 15.7528 3.0697C15.3295 2.16622 14.6575 1.40206 13.8155 0.866744C12.9735 0.331428 11.9965 0.0471191 10.9987 0.0471191C10.001 0.0471191 9.02392 0.331428 8.18195 0.866744C7.33998 1.40206 6.66798 2.16622 6.24467 3.0697C6.08061 3.0547 5.91467 3.04533 5.74873 3.04533C4.55696 3.04562 3.40076 3.45138 2.47018 4.19591C1.53959 4.94044 0.890019 5.97944 0.628232 7.1421C0.366445 8.30476 0.508026 9.52189 1.0297 10.5934C1.55138 11.6649 2.4221 12.5271 3.49873 13.0381V17.2953C3.49873 17.6932 3.65677 18.0747 3.93807 18.356C4.21938 18.6373 4.60091 18.7953 4.99873 18.7953H16.9987C17.3966 18.7953 17.7781 18.6373 18.0594 18.356C18.3407 18.0747 18.4987 17.6932 18.4987 17.2953V13.0381C19.3956 12.6116 20.1534 11.9397 20.6843 11.1004C21.2153 10.261 21.4976 9.2885 21.4987 8.29533ZM16.9987 17.2953H4.99873V13.491C5.24709 13.5271 5.49775 13.5453 5.74873 13.5453H16.2487C16.4997 13.5453 16.7504 13.5271 16.9987 13.491V17.2953ZM16.2487 12.0453H14.9597L15.4762 9.9772C15.5207 9.7856 15.488 9.58421 15.3854 9.41643C15.2828 9.24864 15.1183 9.12789 14.9275 9.08019C14.7367 9.03249 14.5348 9.06165 14.3653 9.16139C14.1958 9.26114 14.0722 9.42348 14.0212 9.61345L13.4128 12.0453H11.7487V9.79533C11.7487 9.59641 11.6697 9.40565 11.5291 9.265C11.3884 9.12434 11.1976 9.04533 10.9987 9.04533C10.7998 9.04533 10.6091 9.12434 10.4684 9.265C10.3278 9.40565 10.2487 9.59641 10.2487 9.79533V12.0453H8.58467L7.97623 9.61345C7.95374 9.51645 7.91216 9.4249 7.85392 9.34414C7.79567 9.26338 7.72193 9.19503 7.63699 9.14307C7.55204 9.09111 7.45761 9.05658 7.35918 9.0415C7.26076 9.02643 7.16031 9.0311 7.06371 9.05525C6.96711 9.0794 6.87629 9.12254 6.79654 9.18216C6.71679 9.24179 6.64971 9.31669 6.59921 9.40251C6.54872 9.48833 6.51581 9.58334 6.50243 9.68201C6.48904 9.78068 6.49543 9.88103 6.52123 9.9772L7.0378 12.0453H5.74873C4.75417 12.0453 3.80034 11.6502 3.09708 10.947C2.39382 10.2437 1.99873 9.28989 1.99873 8.29533C1.99873 7.30077 2.39382 6.34694 3.09708 5.64368C3.80034 4.94041 4.75417 4.54533 5.74873 4.54533H5.80311C5.76682 4.79368 5.74865 5.04434 5.74873 5.29533C5.74873 5.49424 5.82775 5.685 5.9684 5.82566C6.10906 5.96631 6.29982 6.04533 6.49873 6.04533C6.69765 6.04533 6.88841 5.96631 7.02906 5.82566C7.16972 5.685 7.24873 5.49424 7.24873 5.29533C7.24873 4.30076 7.64382 3.34694 8.34708 2.64368C9.05035 1.94041 10.0042 1.54533 10.9987 1.54533C11.9933 1.54533 12.9471 1.94041 13.6504 2.64368C14.3536 3.34694 14.7487 4.30076 14.7487 5.29533C14.7487 5.49424 14.8278 5.685 14.9684 5.82566C15.1091 5.96631 15.2998 6.04533 15.4987 6.04533C15.6976 6.04533 15.8884 5.96631 16.0291 5.82566C16.1697 5.685 16.2487 5.49424 16.2487 5.29533C16.2488 5.04434 16.2306 4.79368 16.1944 4.54533H16.2487C17.2433 4.54533 18.1971 4.94041 18.9004 5.64368C19.6036 6.34694 19.9987 7.30077 19.9987 8.29533C19.9987 9.28989 19.6036 10.2437 18.9004 10.947C18.1971 11.6502 17.2433 12.0453 16.2487 12.0453Z" fill="black"/>
</svg>
