<svg width="36" height="37" viewBox="0 0 36 37" fill="none" xmlns="http://www.w3.org/2000/svg">
<path d="M24 5.00128L24.0181 3.75141L24.0181 3.75141L24 5.00128ZM33 14.0003L34.25 14.0003L34.25 14.0002L33 14.0003ZM18 32.0003L18 33.2503H18V32.0003ZM3 14.0003L1.75 14.0002V14.0003L3 14.0003ZM12 5.00128L12 3.75128L12 3.75128L12 5.00128ZM18 8.00128L16.96 8.69467C17.1918 9.04241 17.5821 9.25128 18 9.25128C18.4179 9.25127 18.8082 9.04241 19.0401 8.69467L18 8.00128ZM24 5.00128L23.9819 6.25114C27.8901 6.30769 31.7498 9.52211 31.75 14.0004L33 14.0003L34.25 14.0002C34.2498 7.97931 29.1096 3.82508 24.0181 3.75141L24 5.00128ZM33 14.0003H31.75C31.75 18.7139 28.7004 22.9001 25.229 26.0061C23.5158 27.5391 21.7561 28.7568 20.3435 29.5865C19.6367 30.0016 19.0302 30.3117 18.5718 30.5134C18.3415 30.6147 18.1633 30.6822 18.0377 30.722C17.8807 30.7718 17.8924 30.7503 18 30.7503V32.0003V33.2503C18.2951 33.2503 18.588 33.1702 18.7936 33.105C19.0306 33.0298 19.2962 32.9259 19.5786 32.8017C20.1456 32.5522 20.8398 32.1943 21.6096 31.7422C23.1501 30.8374 25.0467 29.5239 26.896 27.8692C30.5496 24.6002 34.25 19.7864 34.25 14.0003H33ZM18 32.0003L18 30.7503C18.1076 30.7503 18.1193 30.7718 17.9623 30.722C17.8367 30.6822 17.6585 30.6147 17.4282 30.5134C16.9698 30.3117 16.3633 30.0016 15.6565 29.5865C14.2439 28.7568 12.4842 27.539 10.771 26.0061C7.29963 22.9001 4.25 18.7138 4.25 14.0003L3 14.0003L1.75 14.0003C1.75 19.7864 5.45036 24.6001 9.10399 27.8692C10.9532 29.5238 12.8499 30.8374 14.3904 31.7422C15.1601 32.1943 15.8544 32.5522 16.4214 32.8016C16.7038 32.9259 16.9694 33.0298 17.2064 33.105C17.412 33.1702 17.7049 33.2503 18 33.2503L18 32.0003ZM3 14.0003L4.25 14.0004C4.25019 9.50752 8.12208 6.25128 12 6.25128L12 5.00128L12 3.75128C6.87814 3.75128 1.75025 7.99388 1.75 14.0002L3 14.0003ZM12 5.00128V6.25128C13.9266 6.25128 15.7571 6.89055 16.96 8.69467L18 8.00128L19.04 7.30788C17.2428 4.61219 14.4955 3.75128 12 3.75128V5.00128ZM18 8.00128L19.0401 8.69467C20.2504 6.87919 22.0482 6.22317 23.9819 6.25114L24 5.00128L24.0181 3.75141C21.4518 3.71427 18.7496 4.62355 16.9599 7.30788L18 8.00128Z" fill="#E3001B"/>
</svg>
