<svg width="82" height="54" viewBox="0 0 82 54" fill="none" xmlns="http://www.w3.org/2000/svg">
<path d="M42.8812 15.0423C43.1802 15.2103 43.429 15.4657 43.599 15.7792C43.7691 16.0926 43.8535 16.4514 43.8426 16.8142C43.8426 17.6176 43.3947 18.2175 42.519 18.5624L42.2185 18.6074C38.9504 18.3932 36.5341 18.3096 35.0175 18.3096C28.1151 18.3096 21.7043 19.7815 15.7434 22.7488C13.3117 23.8835 10.992 25.2781 8.81907 26.9116C6.19053 28.9812 4.48086 31.3379 3.69004 33.9817C3.42725 35.0945 3.29355 36.238 3.29198 37.3861C3.29198 40.4455 5.05871 43.4128 8.59218 46.288C12.4176 49.0261 16.8181 50.3844 21.7561 50.3844H22.2198C27.6693 50.3844 33.3961 48.8733 39.4002 45.851C40.9457 44.9904 42.4188 43.9868 43.8028 42.8515C45.1701 41.5853 46.1752 40.4948 46.8161 39.5607L47.8112 38.0203V37.9731H47.7694C45.7791 37.9731 44.3899 36.9612 43.6017 34.9373C43.3872 34.3118 43.2786 33.65 43.2813 32.9833V32.6834C43.2813 30.0374 44.372 28.0128 46.5733 26.6095C47.2613 26.2535 48.0114 26.0579 48.7746 26.0353H48.9736C50.7649 26.0353 52.1163 27.0701 52.992 29.1633C53.2554 29.9904 53.3853 30.86 53.3762 31.7343C53.3641 32.6988 53.235 33.6574 52.992 34.5859C53.1838 34.5653 53.3765 34.5575 53.5692 34.5623C54.2738 34.633 54.7435 34.9544 55.0221 35.5072C55.1564 35.7542 55.2288 36.0345 55.2323 36.3206C55.2357 36.6068 55.1702 36.889 55.042 37.1397C54.7873 37.6689 54.4668 38.0138 54.1026 38.151C53.7384 38.2881 52.9701 38.2666 51.7302 38.1981L51.1968 39.325C50.534 40.7048 49.3378 42.3373 47.6281 44.2527C46.004 45.8853 44.4874 47.1043 43.0982 47.9313C41.6234 48.9211 39.5296 49.9109 36.8367 50.9458C32.5392 52.4624 28.0461 53.239 23.5235 53.2468C16.4061 53.2468 10.3178 51.1986 5.21262 47.1279C1.72958 43.9977 0 40.8248 0 37.6046V36.9619C0 35.2479 0.425924 33.2361 1.30365 30.9116C1.83705 29.5554 2.88396 27.9443 4.48815 26.0825C6.56205 24.0343 8.31353 22.6074 9.74656 21.849C12.2026 20.2378 15.2584 18.7424 18.9139 17.3626C23.8234 15.4773 29.2436 14.5346 35.1748 14.5346C40.3177 14.6438 42.8812 14.8281 42.8812 15.0423ZM46.7922 32.9855C46.7922 33.6047 47.0052 34.0203 47.4112 34.226C47.8086 34.4494 48.247 34.5752 48.6949 34.5945H48.7805C49.4413 34.5945 49.8692 33.6518 50.0404 31.7878L50.0842 31.4429C49.9548 30.3717 49.5269 29.8104 48.7805 29.8104C47.9844 29.8104 47.3873 30.4081 46.9415 31.6036C46.8389 31.977 46.7886 32.3647 46.7922 32.7541V32.9855Z" fill="white"/>
<path d="M63.8173 36.107V36.5205C63.5825 37.6475 63.0053 38.2002 62.0439 38.2002C59.6934 38.2238 58.3898 37.279 58.1549 35.3936C56.895 37.4868 55.6968 38.1788 53.7324 38.2688C53.6568 38.2688 52.5661 38.4123 51.9411 37.5661C51.6777 37.218 51.5412 36.7785 51.557 36.3299C51.5824 35.9517 51.7167 35.5915 51.9411 35.2993C52.1421 35.0255 52.4054 34.8122 52.7054 34.6802C53.3919 34.618 54.0608 34.4143 54.6758 34.0803C55.2166 33.818 55.7001 33.4362 56.0949 32.9598C56.7855 32.0856 57.1418 31.1494 57.52 29.9882C58.0812 28.2742 58.7659 25.8511 59.6138 24.8591C60.1047 24.2878 60.6607 24.1035 61.2817 24.3063C62.4559 24.9491 62.6264 26.191 61.7932 28.0321C61.216 29.7118 60.8756 30.7702 60.7463 31.2308C60.6071 31.832 60.5568 32.4531 60.597 33.0712C60.5988 33.2808 60.6502 33.4865 60.7463 33.6689C60.838 33.8302 60.9617 33.9678 61.1085 34.0717C61.5229 34.363 61.9838 34.5693 62.4679 34.6802C62.6708 34.7104 62.8662 34.7832 63.0431 34.8944C63.2413 35.0301 63.412 35.2074 63.5451 35.4158C63.6781 35.6241 63.7707 35.8592 63.8173 36.107ZM58.4435 48.3662V48.8268C58.4435 49.5853 57.8225 50.0931 56.5626 50.3909H56.1347C55.044 50.3909 54.4032 49.4953 54.1683 47.7235C54.1683 46.8258 54.7037 46.2966 55.7924 46.1595C56.8353 46.1595 57.713 46.8944 58.4435 48.3662Z" fill="white"/>
<path d="M75.4069 21.4997C76.7523 20.6256 77.9061 20.1885 78.868 20.1885C80.2891 20.1885 81.2883 21.0262 81.8535 22.7231C81.8629 22.7501 81.8696 22.7781 81.8734 22.8066L81.9729 23.6636C81.9729 23.6636 81.9729 23.6829 81.9729 23.6936C82.2257 29.0005 80.7091 32.812 77.3952 35.0872C74.0814 37.3625 69.8738 38.3995 64.701 38.1938C62.3723 38.2174 61.218 38.1467 61.218 37.9624C60.6766 37.5339 60.4 37.0454 60.386 36.4884C60.3841 36.4599 60.3841 36.4312 60.386 36.4027C60.5632 35.1879 61.1165 34.5816 62.0241 34.5816L63.8153 34.5238C63.9051 34.5204 63.9901 34.4797 64.0525 34.4101C64.1149 34.3406 64.1498 34.2477 64.1497 34.151V34.0074C65.1623 32.1445 66.3358 30.3885 67.6546 28.7627C68.3592 27.9057 69.012 27.2051 70.3137 25.8254C72.0473 23.9914 72.8414 23.2973 73.5678 22.7359C74.1609 22.2904 74.7747 21.8778 75.4069 21.4997ZM68.1622 34.0139C70.3834 34.4424 72.6503 33.8982 74.9292 32.3792C77.2081 30.8602 78.4979 28.9984 78.7546 26.8088C79.0114 24.6192 78.6053 23.7257 77.5365 24.1628C76.4677 24.5999 74.7202 26.091 72.2901 28.5934L72.2702 28.6148C70.0331 31.2544 68.6259 33.0669 68.0905 34.0096L68.1622 34.0139Z" fill="white"/>
<path d="M42.4056 8.76704C45.5589 8.81953 48.7048 8.41967 51.76 7.57799C53.2846 7.14949 55.6989 4.74993 55.2371 4.68566C55.1426 4.67215 55.0469 4.67215 54.9525 4.68566C53.6229 4.88062 42.306 2.5432 40.4033 5.92187C40.3476 6.0247 39.9057 6.8324 40.1804 7.56726C40.5566 8.57637 42.0135 8.74133 42.2324 8.76489L42.4056 8.76704Z" fill="white"/>
<path d="M80.944 20.7091C80.7449 20.4735 80.5718 20.2314 80.3966 19.9871C79.4685 18.6871 78.7302 17.2421 78.2073 15.7022C77.4885 13.6159 77.1847 11.3905 77.3156 9.16983C77.3237 9.05588 77.3656 8.94775 77.435 8.86133C79.296 6.71887 79.0989 3.78583 77.4728 1.7912C76.7969 0.933911 75.8756 0.342504 74.8536 0.109841C73.8317 -0.122822 72.7668 0.0164313 71.8263 0.505721C71.7518 0.533581 71.6836 0.577859 71.6259 0.635728C71.5681 0.693597 71.5223 0.76379 71.4912 0.841815C71.4601 0.919839 71.4445 1.00396 71.4453 1.08886C71.4461 1.17375 71.4633 1.25754 71.4959 1.33485C71.5208 1.41771 71.5618 1.49392 71.6161 1.55846C71.6704 1.623 71.7368 1.6744 71.8109 1.70924C71.8851 1.74407 71.9652 1.76156 72.0461 1.76055C72.127 1.75953 72.2068 1.74004 72.2801 1.70335C72.3677 1.67121 72.4533 1.62836 72.5409 1.59194C73.0078 1.37671 73.5135 1.27637 74.021 1.29824C74.5285 1.32011 75.0251 1.46365 75.4746 1.71836C77.6221 2.91172 78.4143 6.14469 76.3623 8.19288C76.2295 8.34459 76.1481 8.5401 76.1314 8.74778C75.9249 11.4662 76.3262 14.1984 77.3017 16.7156C77.4151 17.0091 77.5525 17.2919 77.6858 17.5962C77.6313 17.6169 77.5754 17.6334 77.5186 17.6454C75.7485 17.8657 74.0213 18.3826 72.3996 19.1773C70.3742 20.1498 68.5682 21.5823 67.1053 23.3765C67.0217 23.4655 66.9654 23.58 66.944 23.7045C66.9227 23.829 66.9373 23.9575 66.9859 24.0728C67.3782 25.1482 67.665 26.2648 67.8417 27.4043C67.8633 27.5375 67.9043 27.6663 67.9631 27.7857C67.9807 27.8229 68.0006 27.8587 68.0229 27.8928C68.0707 27.9716 68.1275 28.0436 68.192 28.1071C68.618 28.5206 69.2569 28.4692 69.6987 27.9442C70.9384 26.4846 72.4243 25.2916 74.0774 24.4285C76.0769 23.3887 78.2346 22.747 80.4464 22.5345C80.5695 22.5243 80.6885 22.4816 80.7927 22.4103C80.9721 22.278 81.1063 22.0861 81.1748 21.8639C81.2356 21.6668 81.2463 21.4557 81.2057 21.2527C81.1651 21.0496 81.0747 20.8619 80.944 20.7091ZM79.1746 21.4226C75.2935 21.8978 71.6895 23.8209 68.9882 26.858C68.9683 26.7723 68.9503 26.6909 68.9344 26.6095C68.8468 26.2324 68.7732 25.8725 68.6797 25.5233C68.5563 25.0605 68.417 24.602 68.2816 24.15C68.256 24.0948 68.2485 24.0319 68.2604 23.9715C68.2724 23.9112 68.303 23.857 68.3473 23.8179C70.0351 22.0182 71.9557 20.617 74.2167 19.7772C75.4552 19.3213 76.738 19.0187 78.0401 18.8752C78.1103 18.8592 78.1834 18.8688 78.248 18.9026C78.3125 18.9363 78.3647 18.9923 78.3964 19.0616L78.7168 19.5779C78.9039 19.8693 79.091 20.1607 79.2781 20.4478L79.7557 21.1869L79.8652 21.3433C79.6264 21.3648 79.3995 21.3905 79.1746 21.4226Z" fill="white"/>
<path d="M70.3615 3.9465C70.2702 4.06915 70.1413 4.15274 69.9979 4.18219C69.8545 4.21165 69.7061 4.18504 69.5793 4.10718C69.1446 3.86028 68.6878 3.66144 68.2159 3.51372C67.6546 3.38904 67.0757 3.38811 66.5141 3.51097C65.9525 3.63383 65.4198 3.87795 64.9483 4.22856C64.4767 4.57917 64.0761 5.029 63.7705 5.55092C63.465 6.07283 63.2608 6.65598 63.1705 7.26518C63.0909 7.80293 62.7903 8.01076 62.2947 7.86079C61.7043 7.67896 61.0811 7.65872 60.4816 7.80186C59.8821 7.94501 59.3253 8.24701 58.8617 8.6805C58.3981 9.114 58.0424 9.66525 57.8269 10.2842C57.6114 10.9032 57.5428 11.5703 57.6275 12.225C57.7677 13.2555 58.2787 14.1854 59.0503 14.8139C59.8218 15.4424 60.792 15.7191 61.7514 15.5844C61.8763 15.5677 62.003 15.5812 62.1225 15.6238C62.242 15.6664 62.3511 15.7371 62.442 15.8308C63.2561 16.5978 64.09 17.3305 64.8603 18.1511C65.3863 18.7395 65.877 19.3635 66.3291 20.0193C66.4847 20.2519 66.6025 20.5112 66.6774 20.7863C66.7889 21.1441 66.6894 21.384 66.4346 21.5169C66.3052 21.5926 66.1538 21.6126 66.0112 21.5729C65.8686 21.5331 65.7453 21.4365 65.6663 21.3026C65.3817 20.8891 65.115 20.4606 64.8224 20.0557C63.9865 18.905 63.0043 17.8866 61.9046 17.0305C61.7987 16.9526 61.6727 16.9121 61.5444 16.9148C60.4863 16.9747 59.4387 16.6647 58.5577 16.0311C57.6768 15.3974 57.0098 14.4742 56.6562 13.3991C56.3079 12.3311 56.2908 11.1705 56.6073 10.0912C56.9238 9.01185 57.5569 8.07215 58.4116 7.41302C58.9262 7.00634 59.5107 6.71378 60.1312 6.55232C60.7517 6.39086 61.3957 6.36371 62.0261 6.47247C62.2696 5.8783 62.542 5.29832 62.8421 4.73494C63.4891 3.67039 64.4453 2.86629 65.5614 2.44811C66.6775 2.02993 67.8908 2.02118 69.012 2.42321C69.3146 2.53462 69.6091 2.65674 69.9097 2.79814C70.0579 2.87552 70.1926 2.97991 70.3077 3.10667C70.409 3.21629 70.4702 3.36153 70.4801 3.51578C70.49 3.67004 70.4479 3.82296 70.3615 3.9465Z" fill="white"/>
<path d="M71.3546 8.85062L72.507 12.2422C72.7857 13.0649 73.0643 13.8897 73.3469 14.7103C73.4962 15.1387 73.4007 15.4558 73.0584 15.6229C72.9835 15.6661 72.9006 15.6908 72.8158 15.695C72.731 15.6993 72.6463 15.683 72.5681 15.6475C72.4898 15.6119 72.42 15.558 72.3636 15.4896C72.3072 15.4212 72.2658 15.3402 72.2423 15.2523C71.9816 14.5024 71.7308 13.7526 71.478 12.9963L70.3097 9.55121C70.2839 9.47194 70.252 9.39481 70.2301 9.3134C70.1187 8.9149 70.252 8.59995 70.5844 8.47354C70.6578 8.44154 70.7364 8.42596 70.8156 8.42775C70.8947 8.42953 70.9727 8.44865 71.0448 8.48393C71.1168 8.51921 71.1815 8.56993 71.2348 8.63297C71.288 8.69602 71.3288 8.77006 71.3546 8.85062Z" fill="white"/>
<path d="M69.4957 16.7799C69.5522 16.9295 69.5544 17.0966 69.5016 17.2479C69.4489 17.3992 69.3451 17.5235 69.2111 17.5962C69.0726 17.6725 68.912 17.6877 68.7633 17.6385C68.6146 17.5893 68.4896 17.4795 68.4149 17.3326C67.9731 16.5356 67.5392 15.7344 67.1013 14.9352L65.6146 12.21C65.5429 12.0793 65.4713 11.9486 65.4156 11.8115C65.3786 11.738 65.3557 11.6573 65.3482 11.5741C65.3406 11.4909 65.3486 11.407 65.3715 11.3272C65.3945 11.2473 65.4321 11.1733 65.482 11.1093C65.532 11.0453 65.5933 10.9927 65.6623 10.9545C65.7287 10.9132 65.8019 10.8863 65.8779 10.8756C65.9539 10.8648 66.0311 10.8704 66.1051 10.8919C66.1791 10.9134 66.2484 10.9504 66.3091 11.0009C66.3697 11.0514 66.4205 11.1142 66.4585 11.1859C66.962 12.09 67.4536 12.9984 67.9532 13.9068C68.4269 14.7638 68.8966 15.6358 69.3962 16.5549C69.4355 16.6266 69.4688 16.7019 69.4957 16.7799Z" fill="white"/>
</svg>
