<svg width="82" height="50" viewBox="0 0 82 50" fill="none" xmlns="http://www.w3.org/2000/svg">
<path d="M42.8812 14.1251C43.1802 14.2829 43.429 14.5227 43.599 14.817C43.7691 15.1114 43.8535 15.4482 43.8426 15.7889C43.8426 16.5433 43.3947 17.1067 42.519 17.4306L42.2185 17.4728C38.9504 17.2716 36.5341 17.1932 35.0175 17.1932C28.1151 17.1932 21.7043 18.5753 15.7434 21.3617C13.3117 22.4272 10.992 23.7368 8.81907 25.2706C6.19053 27.2141 4.48086 29.4271 3.69004 31.9097C3.42725 32.9546 3.29355 34.0283 3.29198 35.1065C3.29198 37.9794 5.05871 40.7657 8.59218 43.4656C12.4176 46.0367 16.8181 47.3122 21.7561 47.3122H22.2198C27.6693 47.3122 33.3961 45.8932 39.4002 43.0552C40.9457 42.2471 42.4188 41.3047 43.8028 40.2386C45.1701 39.0496 46.1752 38.0256 46.8161 37.1485L47.8112 35.702V35.6577H47.7694C45.7791 35.6577 44.3899 34.7074 43.6017 32.8069C43.3872 32.2197 43.2786 31.5982 43.2813 30.9722V30.6905C43.2813 28.2059 44.372 26.3047 46.5733 24.987C47.2613 24.6527 48.0114 24.469 48.7746 24.4478H48.9736C50.7649 24.4478 52.1163 25.4195 52.992 27.3851C53.2554 28.1618 53.3853 28.9783 53.3762 29.7993C53.3641 30.705 53.235 31.6051 52.992 32.477C53.1838 32.4577 53.3765 32.4503 53.5692 32.4549C54.2738 32.5213 54.7435 32.823 55.0221 33.3421C55.1564 33.574 55.2288 33.8372 55.2323 34.1059C55.2357 34.3746 55.1702 34.6397 55.042 34.8751C54.7873 35.372 54.4668 35.6959 54.1026 35.8247C53.7384 35.9534 52.9701 35.9333 51.7302 35.8689L51.1968 36.9272C50.534 38.2228 49.3378 39.7558 47.6281 41.5544C46.004 43.0874 44.4874 44.2321 43.0982 45.0087C41.6234 45.9381 39.5296 46.8676 36.8367 47.8393C32.5392 49.2635 28.0461 49.9927 23.5235 50C16.4061 50 10.3178 48.0767 5.21262 44.2542C1.72958 41.315 0 38.3355 0 35.3117V34.7081C0 33.0987 0.425924 31.2095 1.30365 29.0267C1.83705 27.7532 2.88396 26.2403 4.48815 24.4921C6.56205 22.5688 8.31353 21.2289 9.74656 20.5167C12.2026 19.0038 15.2584 17.5995 18.9139 16.3039C23.8234 14.5335 29.2436 13.6483 35.1748 13.6483C40.3177 13.7509 42.8812 13.9239 42.8812 14.1251ZM46.7922 30.9742C46.7922 31.5556 47.0052 31.9459 47.4112 32.139C47.8086 32.3488 48.247 32.4669 48.6949 32.4851H48.7805C49.4413 32.4851 49.8692 31.5999 50.0404 29.8496L50.0842 29.5257C49.9548 28.5198 49.5269 27.9927 48.7805 27.9927C47.9844 27.9927 47.3873 28.5539 46.9415 29.6765C46.8389 30.0272 46.7886 30.3913 46.7922 30.7569V30.9742Z" fill="#E3001B"/>
<path d="M63.8173 33.9054V34.2937C63.5825 35.3519 63.0053 35.8709 62.0439 35.8709C59.6934 35.8931 58.3898 35.0059 58.1549 33.2355C56.895 35.201 55.6968 35.8508 53.7324 35.9353C53.6568 35.9353 52.5661 36.0701 51.9411 35.2754C51.6777 34.9486 51.5412 34.5359 51.557 34.1146C51.5824 33.7595 51.7167 33.4213 51.9411 33.1469C52.1421 32.8898 52.4054 32.6895 52.7054 32.5655C53.3919 32.5071 54.0608 32.3159 54.6758 32.0022C55.2166 31.7559 55.7001 31.3974 56.0949 30.95C56.7855 30.1292 57.1418 29.25 57.52 28.1596C58.0812 26.5502 58.7659 24.2748 59.6138 23.3433C60.1047 22.8068 60.6607 22.6338 61.2817 22.8243C62.4559 23.4278 62.6264 24.594 61.7932 26.3228C61.216 27.9001 60.8756 28.8939 60.7463 29.3265C60.6071 29.8911 60.5568 30.4742 60.597 31.0546C60.5988 31.2515 60.6502 31.4446 60.7463 31.6159C60.838 31.7674 60.9617 31.8965 61.1085 31.9941C61.5229 32.2677 61.9838 32.4614 62.4679 32.5655C62.6708 32.5939 62.8662 32.6622 63.0431 32.7667C63.2413 32.8941 63.412 33.0606 63.5451 33.2563C63.6781 33.4519 63.7707 33.6727 63.8173 33.9054ZM58.4435 45.4171V45.8496C58.4435 46.5618 57.8225 47.0386 56.5626 47.3182H56.1347C55.044 47.3182 54.4032 46.4773 54.1683 44.8135C54.1683 43.9706 54.7037 43.4736 55.7924 43.3449C56.8353 43.3449 57.713 44.0349 58.4435 45.4171Z" fill="#E3001B"/>
<path d="M75.4069 20.1888C76.7523 19.3679 77.9061 18.9575 78.868 18.9575C80.2891 18.9575 81.2883 19.7442 81.8535 21.3375C81.8629 21.3629 81.8696 21.3892 81.8734 21.416L81.9729 22.2207C81.9729 22.2207 81.9729 22.2388 81.9729 22.2489C82.2257 27.2322 80.7091 30.8112 77.3952 32.9478C74.0814 35.0843 69.8738 36.0581 64.701 35.8649C62.3723 35.8871 61.218 35.8207 61.218 35.6476C60.6766 35.2453 60.4 34.7866 60.386 34.2635C60.3841 34.2367 60.3841 34.2098 60.386 34.183C60.5632 33.0423 61.1165 32.473 62.0241 32.473L63.8153 32.4187C63.9051 32.4155 63.9901 32.3773 64.0525 32.312C64.1149 32.2467 64.1498 32.1594 64.1497 32.0686V31.9338C65.1623 30.1845 66.3358 28.5355 67.6546 27.0089C68.3592 26.2041 69.012 25.5463 70.3137 24.2506C72.0473 22.5285 72.8414 21.8767 73.5678 21.3496C74.1609 20.9313 74.7747 20.5438 75.4069 20.1888ZM68.1622 31.9399C70.3834 32.3422 72.6503 31.8312 74.9292 30.4048C77.2081 28.9784 78.4979 27.2302 78.7546 25.1741C79.0114 23.118 78.6053 22.279 77.5365 22.6895C76.4677 23.0999 74.7202 24.5001 72.2901 26.8499L72.2702 26.87C70.0331 29.3486 68.6259 31.0506 68.0905 31.9358L68.1622 31.9399Z" fill="#E3001B"/>
<path d="M42.4056 8.23246C45.5589 8.28175 48.7048 7.90628 51.76 7.11591C53.2846 6.71355 55.6989 4.4603 55.2371 4.39995C55.1426 4.38727 55.0469 4.38727 54.9525 4.39995C53.6229 4.58303 42.306 2.38813 40.4033 5.56078C40.3476 5.65734 39.9057 6.41579 40.1804 7.10585C40.5566 8.05342 42.0135 8.20832 42.2324 8.23045L42.4056 8.23246Z" fill="#E3001B"/>
<path d="M80.944 19.4464C80.7449 19.2251 80.5718 18.9978 80.3966 18.7684C79.4685 17.5476 78.7302 16.1908 78.2073 14.7448C77.4885 12.7857 77.1847 10.6959 77.3156 8.6107C77.3237 8.50369 77.3656 8.40215 77.435 8.32101C79.296 6.30918 79.0989 3.55499 77.4728 1.68198C76.7969 0.876965 75.8756 0.32162 74.8536 0.103143C73.8317 -0.115333 72.7668 0.0154294 71.8263 0.474884C71.7518 0.501045 71.6836 0.542624 71.6259 0.596964C71.5681 0.651304 71.5223 0.717218 71.4912 0.790484C71.4601 0.863751 71.4445 0.942745 71.4453 1.02246C71.4461 1.10218 71.4633 1.18086 71.4959 1.25346C71.5208 1.33126 71.5618 1.40283 71.6161 1.46343C71.6704 1.52404 71.7368 1.5723 71.8109 1.60501C71.8851 1.63773 71.9652 1.65415 72.0461 1.6532C72.127 1.65225 72.2068 1.63394 72.2801 1.59949C72.3677 1.56931 72.4533 1.52907 72.5409 1.49487C73.0078 1.29277 73.5135 1.19854 74.021 1.21908C74.5285 1.23961 75.0251 1.37441 75.4746 1.61358C77.6221 2.73417 78.4143 5.77001 76.3623 7.69332C76.2295 7.83577 76.1481 8.01936 76.1314 8.21437C75.9249 10.767 76.3262 13.3326 77.3017 15.6964C77.4151 15.972 77.5525 16.2375 77.6858 16.5232C77.6313 16.5427 77.5754 16.5582 77.5186 16.5695C75.7485 16.7763 74.0213 17.2617 72.3996 18.008C70.3742 18.9212 68.5682 20.2663 67.1053 21.9511C67.0217 22.0347 66.9654 22.1422 66.944 22.2591C66.9227 22.376 66.9373 22.4967 66.9859 22.605C67.3782 23.6148 67.665 24.6633 67.8417 25.7333C67.8633 25.8584 67.9043 25.9793 67.9631 26.0915C67.9807 26.1264 68.0006 26.16 68.0229 26.192C68.0707 26.266 68.1275 26.3336 68.192 26.3932C68.618 26.7815 69.2569 26.7332 69.6987 26.2403C70.9384 24.8697 72.4243 23.7494 74.0774 22.9389C76.0769 21.9626 78.2346 21.36 80.4464 21.1605C80.5695 21.1508 80.6885 21.1108 80.7927 21.0438C80.9721 20.9196 81.1063 20.7394 81.1748 20.5308C81.2356 20.3456 81.2463 20.1475 81.2057 19.9568C81.1651 19.7661 81.0747 19.5898 80.944 19.4464ZM79.1746 20.1163C75.2935 20.5626 71.6895 22.3684 68.9882 25.2203C68.9683 25.1399 68.9503 25.0634 68.9344 24.987C68.8468 24.6329 68.7732 24.2949 68.6797 23.967C68.5563 23.5324 68.417 23.1019 68.2816 22.6774C68.256 22.6256 68.2485 22.5665 68.2604 22.5099C68.2724 22.4532 68.303 22.4023 68.3473 22.3656C70.0351 20.6756 71.9557 19.3599 74.2167 18.5713C75.4552 18.1432 76.738 17.859 78.0401 17.7243C78.1103 17.7092 78.1834 17.7183 78.248 17.75C78.3125 17.7817 78.3647 17.8342 78.3964 17.8993L78.7168 18.3842C78.9039 18.6578 79.091 18.9314 79.2781 19.201L79.7557 19.8951L79.8652 20.0419C79.6264 20.062 79.3995 20.0862 79.1746 20.1163Z" fill="#E3001B"/>
<path d="M70.3615 3.70586C70.2702 3.82103 70.1413 3.89952 69.9979 3.92718C69.8545 3.95484 69.7061 3.92985 69.5793 3.85675C69.1446 3.6249 68.6878 3.43818 68.2159 3.29947C67.6546 3.1824 67.0757 3.18152 66.5141 3.29689C65.9525 3.41225 65.4198 3.64149 64.9483 3.97072C64.4767 4.29995 64.0761 4.72235 63.7705 5.21245C63.465 5.70254 63.2608 6.25013 63.1705 6.82218C63.0909 7.32715 62.7903 7.5223 62.2947 7.38147C61.7043 7.21073 61.0811 7.19172 60.4816 7.32614C59.8821 7.46056 59.3253 7.74415 58.8617 8.15121C58.3981 8.55826 58.0424 9.0759 57.8269 9.65713C57.6114 10.2384 57.5428 10.8648 57.6275 11.4796C57.7677 12.4472 58.2787 13.3204 59.0503 13.9106C59.8218 14.5007 60.792 14.7606 61.7514 14.6341C61.8763 14.6185 62.003 14.6311 62.1225 14.6711C62.242 14.7111 62.3511 14.7775 62.442 14.8655C63.2561 15.5857 64.09 16.2737 64.8603 17.0443C65.3863 17.5968 65.877 18.1828 66.3291 18.7986C66.4847 19.017 66.6025 19.2605 66.6774 19.5188C66.7889 19.8548 66.6894 20.0801 66.4346 20.2048C66.3052 20.276 66.1538 20.2948 66.0112 20.2575C65.8686 20.2201 65.7453 20.1294 65.6663 20.0037C65.3817 19.6154 65.115 19.213 64.8224 18.8328C63.9865 17.7522 63.0043 16.7959 61.9046 15.9921C61.7987 15.9189 61.6727 15.8809 61.5444 15.8835C60.4863 15.9396 59.4387 15.6485 58.5577 15.0535C57.6768 14.4586 57.0098 13.5916 56.6562 12.582C56.3079 11.5792 56.2908 10.4893 56.6073 9.47584C56.9238 8.46235 57.5569 7.57995 58.4116 6.96101C58.9262 6.57913 59.5107 6.3044 60.1312 6.15279C60.7517 6.00117 61.3957 5.97568 62.0261 6.07781C62.2696 5.51987 62.542 4.97525 62.8421 4.44622C63.4891 3.44658 64.4453 2.69152 65.5614 2.29883C66.6775 1.90615 67.8908 1.89793 69.012 2.27545C69.3146 2.38007 69.6091 2.49474 69.9097 2.62752C70.0579 2.70018 70.1926 2.7982 70.3077 2.91724C70.409 3.02017 70.4702 3.15656 70.4801 3.30141C70.49 3.44626 70.4479 3.58986 70.3615 3.70586Z" fill="#E3001B"/>
<path d="M71.3546 8.31095L72.507 11.4957C72.7857 12.2682 73.0643 13.0428 73.3469 13.8133C73.4962 14.2157 73.4007 14.5134 73.0584 14.6703C72.9835 14.7109 72.9006 14.734 72.8158 14.738C72.731 14.742 72.6463 14.7267 72.5681 14.6934C72.4898 14.66 72.42 14.6093 72.3636 14.5451C72.3072 14.4809 72.2658 14.4048 72.2423 14.3223C71.9816 13.6181 71.7308 12.914 71.478 12.2038L70.3097 8.96882C70.2839 8.89438 70.252 8.82196 70.2301 8.74551C70.1187 8.37131 70.252 8.07556 70.5844 7.95686C70.6578 7.92681 70.7364 7.91219 70.8156 7.91386C70.8947 7.91554 70.9727 7.93348 71.0448 7.96661C71.1168 7.99974 71.1815 8.04737 71.2348 8.10657C71.288 8.16577 71.3288 8.2353 71.3546 8.31095Z" fill="#E3001B"/>
<path d="M69.4957 15.7567C69.5522 15.8972 69.5544 16.0542 69.5016 16.1962C69.4489 16.3382 69.3451 16.455 69.2111 16.5232C69.0726 16.5949 68.912 16.6092 68.7633 16.563C68.6146 16.5168 68.4896 16.4137 68.4149 16.2757C67.9731 15.5274 67.5392 14.7749 67.1013 14.0245L65.6146 11.4655C65.5429 11.3428 65.4713 11.2201 65.4156 11.0913C65.3786 11.0223 65.3557 10.9465 65.3482 10.8684C65.3406 10.7903 65.3486 10.7114 65.3715 10.6365C65.3945 10.5615 65.4321 10.492 65.482 10.4319C65.532 10.3718 65.5933 10.3224 65.6623 10.2866C65.7287 10.2477 65.8019 10.2225 65.8779 10.2124C65.9539 10.2024 66.0311 10.2076 66.1051 10.2277C66.1791 10.2479 66.2484 10.2827 66.3091 10.3301C66.3697 10.3775 66.4205 10.4365 66.4585 10.5038C66.962 11.3528 67.4536 12.2058 67.9532 13.0588C68.4269 13.8636 68.8966 14.6824 69.3962 15.5455C69.4355 15.6128 69.4688 15.6835 69.4957 15.7567Z" fill="#E3001B"/>
</svg>
