<svg width="36" height="37" viewBox="0 0 36 37" fill="none" xmlns="http://www.w3.org/2000/svg">
<g clip-path="url(#clip0_579_772)">
<path d="M29.0223 3.53383L28.6852 2.33012L28.6852 2.33013L29.0223 3.53383ZM32.324 3.0143L32.7667 1.84533L32.7667 1.8453L32.324 3.0143ZM33.4861 4.17641L34.6551 3.73381L34.6551 3.73369L33.4861 4.17641ZM32.9666 7.47817L31.7629 7.14112L31.7629 7.14112L32.9666 7.47817ZM26.6033 30.2038L27.807 30.5408L27.807 30.5408L26.6033 30.2038ZM24.742 34.859L25.3925 35.9264L25.3925 35.9264L24.742 34.859ZM22.825 34.9489L22.2774 36.0725L22.2777 36.0727L22.825 34.9489ZM20.535 30.4899L21.7016 30.0412L21.7016 30.0411L20.535 30.4899ZM17.0105 21.3278L15.8439 21.7765L15.8439 21.7766L17.0105 21.3278ZM16.5828 20.3883L17.6015 19.664L17.6015 19.6639L16.5828 20.3883ZM16.1121 19.9176L16.8366 18.899L16.8365 18.8989L16.1121 19.9176ZM15.1727 19.4899L14.7239 20.6565L14.7239 20.6566L15.1727 19.4899ZM6.01054 15.9655L6.45933 14.7988L6.45927 14.7988L6.01054 15.9655ZM1.55156 13.6745L0.427658 14.2216L0.427745 14.2218L1.55156 13.6745ZM1.6414 11.7584L0.574029 11.1079L0.573929 11.1081L1.6414 11.7584ZM6.29668 9.89711L6.63371 11.1008L6.63372 11.1008L6.29668 9.89711ZM29.0223 3.53383L29.3593 4.73753C30.2787 4.48009 30.8852 4.31163 31.34 4.22816C31.8032 4.14316 31.9015 4.19094 31.8814 4.1833L32.324 3.0143L32.7667 1.8453C32.1318 1.60492 31.4749 1.66166 30.8888 1.76922C30.2943 1.87831 29.5571 2.08599 28.6852 2.33012L29.0223 3.53383ZM32.324 3.0143L31.8813 4.18327C32.0823 4.25939 32.241 4.41816 32.3172 4.61912L33.4861 4.17641L34.6551 3.73369C34.3253 2.8628 33.6376 2.17515 32.7667 1.84533L32.324 3.0143ZM33.4861 4.17641L32.3171 4.61901C32.3095 4.59887 32.3572 4.69722 32.2723 5.16044C32.1888 5.61528 32.0203 6.2217 31.7629 7.14112L32.9666 7.47817L34.1703 7.81521C34.4144 6.94329 34.6221 6.20617 34.7312 5.61163C34.8388 5.02547 34.8955 4.36861 34.6551 3.73381L33.4861 4.17641ZM32.9666 7.47817L31.7629 7.14112L25.3996 29.8667L26.6033 30.2038L27.807 30.5408L34.1703 7.81521L32.9666 7.47817ZM26.6033 30.2038L25.3996 29.8667C24.997 31.3045 24.7158 32.3049 24.4562 33.0031C24.1697 33.7734 24.0215 33.8343 24.0915 33.7916L24.742 34.859L25.3925 35.9264C26.1351 35.4738 26.5214 34.6219 26.7994 33.8745C27.1041 33.055 27.4173 31.9327 27.807 30.5408L26.6033 30.2038ZM24.742 34.859L24.0915 33.7916C23.8738 33.9243 23.6025 33.9372 23.3723 33.8251L22.825 34.9489L22.2777 36.0727C23.2725 36.5572 24.4466 36.5029 25.3925 35.9264L24.742 34.859ZM22.825 34.9489L23.3726 33.8252C23.4461 33.861 23.2929 33.8143 22.9355 33.0745C22.6114 32.404 22.2376 31.4346 21.7016 30.0412L20.535 30.4899L19.3683 30.9386C19.8871 32.2875 20.3042 33.3752 20.6845 34.1622C21.0313 34.88 21.4958 35.6916 22.2774 36.0725L22.825 34.9489ZM20.535 30.4899L21.7016 30.0411L18.1772 20.879L17.0105 21.3278L15.8439 21.7766L19.3683 30.9387L20.535 30.4899ZM17.0105 21.3278L18.1772 20.8791C18.0132 20.4526 17.8608 20.0286 17.6015 19.664L16.5828 20.3883L15.5641 21.1127C15.5972 21.1592 15.6319 21.2253 15.8439 21.7765L17.0105 21.3278ZM16.5828 20.3883L17.6015 19.6639C17.391 19.368 17.1324 19.1094 16.8366 18.899L16.1121 19.9176L15.3876 20.9362C15.4559 20.9848 15.5156 21.0445 15.5642 21.1128L16.5828 20.3883ZM16.1121 19.9176L16.8365 18.8989C16.4719 18.6396 16.0478 18.4872 15.6214 18.3232L15.1727 19.4899L14.7239 20.6566C15.2752 20.8686 15.3412 20.9032 15.3877 20.9363L16.1121 19.9176ZM15.1727 19.4899L15.6214 18.3232L6.45933 14.7988L6.01054 15.9655L5.56176 17.1321L14.7239 20.6565L15.1727 19.4899ZM6.01054 15.9655L6.45927 14.7988C5.06583 14.2629 4.09646 13.8888 3.42601 13.5646C2.68637 13.207 2.63959 13.0537 2.67537 13.1271L1.55156 13.6745L0.427745 14.2218C0.808431 15.0034 1.61983 15.4682 2.3378 15.8153C3.12495 16.1959 4.21261 16.6132 5.56182 17.1322L6.01054 15.9655ZM1.55156 13.6745L2.67546 13.1273C2.56339 12.8971 2.57631 12.6264 2.70888 12.4088L1.6414 11.7584L0.573929 11.1081C-0.00226124 12.0538 -0.0565 13.227 0.427658 14.2216L1.55156 13.6745ZM1.6414 11.7584L2.70878 12.409C2.66614 12.4789 2.72701 12.3307 3.49736 12.0443C4.19556 11.7846 5.19598 11.5034 6.63371 11.1008L6.29668 9.89711L5.95964 8.69341C4.5677 9.08315 3.44547 9.39627 2.62595 9.70104C1.87857 9.97898 1.02663 10.3653 0.574029 11.1079L1.6414 11.7584ZM6.29668 9.89711L6.63372 11.1008L29.3593 4.73753L29.0223 3.53383L28.6852 2.33013L5.95963 8.69341L6.29668 9.89711Z" fill="#E3001B"/>
</g>
<defs>
<clipPath id="clip0_579_772">
<rect width="36" height="36" fill="white" transform="translate(0 0.5)"/>
</clipPath>
</defs>
</svg>
