<svg width="24" height="24" viewBox="0 0 24 24" fill="none" xmlns="http://www.w3.org/2000/svg">
<path d="M11.9995 1.25C14.4217 1.25 16.4182 3.06328 16.7105 5.40625C16.7927 5.42277 16.8735 5.43973 16.9527 5.45996C19.18 6.02906 20.9642 7.69306 21.688 9.875C21.9626 10.7027 22.0268 11.6903 22.146 13.3867C22.2813 15.3107 22.3662 16.4279 22.1734 17.3633C21.6635 19.8357 19.8169 21.8171 17.3863 22.499C16.4667 22.7569 15.3462 22.75 13.4175 22.75H10.5816C8.65285 22.75 7.53238 22.757 6.61283 22.499C4.18232 21.817 2.33559 19.8356 1.82572 17.3633C1.63291 16.4279 1.71779 15.3107 1.85307 13.3867C1.97234 11.6904 2.03656 10.7027 2.31107 9.875C3.03485 7.69311 4.81923 6.02914 7.04642 5.45996C7.12494 5.4399 7.20518 5.42266 7.28666 5.40625C7.57883 3.06322 9.57741 1.25014 11.9995 1.25ZM10.5816 6.75C9.79766 6.75 9.21205 6.75313 8.74955 6.76758V8C8.74955 8.41421 8.41376 8.75 7.99955 8.75C7.58547 8.74984 7.24955 8.41412 7.24955 8V6.96191C5.59664 7.44362 4.27946 8.70556 3.7349 10.3467C3.53456 10.9507 3.47571 11.7052 3.35014 13.4912C3.2076 15.5183 3.15403 16.3778 3.29447 17.0596C3.69092 18.9827 5.12759 20.5242 7.0181 21.0547C7.68834 21.2427 8.54937 21.25 10.5816 21.25H13.4175C15.4497 21.25 16.3108 21.2426 16.981 21.0547C18.8716 20.5243 20.3081 18.9828 20.7046 17.0596C20.8451 16.3778 20.7915 15.5184 20.649 13.4912C20.5234 11.7052 20.4646 10.9507 20.2642 10.3467C19.7195 8.70534 18.4028 7.44246 16.7495 6.96094V8C16.7495 8.41421 16.4138 8.75 15.9995 8.75C15.5855 8.74984 15.2495 8.41412 15.2495 8V6.76758C14.7871 6.75314 14.2013 6.75 13.4175 6.75H10.5816ZM11.9995 2.75C10.4584 2.75013 9.1685 3.82312 8.83451 5.2627C9.32608 5.24969 9.89606 5.25 10.5816 5.25H13.4175C14.1029 5.25 14.6731 5.2497 15.1646 5.2627C14.8305 3.82309 13.5408 2.75 11.9995 2.75Z" fill="white"/>
</svg>
